The Expendables (2010) AVCHD 1080P AC3 Multisub 6x


PLOT

A team of mercenaries head to South America on a mission to overthrow a dictator.


MM:    http://www.moviemeter.nl/film/56647

IMDB:    http://www.imdb.com/title/tt1320253/

INFO

DISC INFO:

Disc Title: The.Extendables.2010.Multi.#4A68
Disc Size.: 8.495.813.616 bytes
Protection: AACS
BD-Java...: No
BDInfo....: 0.5.2


PLAYLIST REPORT:

Name......: 00000.MPLS
Size......: 8.495.714.304 bytes
Length....: 1:43:27 (h:m:s)
Bitrate...: 10,95 Mbps

VIDEO:

Codec Bitrate Description 
----- ------- ----------- 
MPEG-4 AVC Video 9863 kbps 1080p / 23,976 fps / 16:9 / High Profile 4.1

AUDIO:

Codec Language Bitrate Description 
----- -------- ------- ----------- 
Dolby Digital Audio English 448 kbps 5.1 / 48 kHz / 448 kbps

SUBTITLES:

Codec Language Bitrate Description 
----- -------- ------- ----------- 
Presentation Graphics English 18,249 kbps 
Presentation Graphics Bulgarian 19,347 kbps 
Presentation Graphics Dutch 16,544 kbps 
Presentation Graphics Romany 19,356 kbps 
Presentation Graphics Slovenian 17,459 kbps 
Presentation Graphics Spanish 19,936 kbps

Enjoy This Nice Release

PLAYER INFO

F:\BDMV\STREAM\00000.m2ts
   General #1
      ID : 1
      Complete name : F:\BDMV\STREAM\00000.m2ts
      Format : BDAV
      Format/Info : Blu-ray Video
      File size : 7.91 GiB
      Duration : 1h 43mn
      Overall bit rate : 10.9 Mbps
      Maximum Overall bit rate : 35.5 Mbps
   Video #4113
      ID : 4113 (0x1011)
      Menu ID : 1 (0x1)
      Format : AVC
      Format/Info : Advanced Video Codec
      Format profile : High@L4.1
      Format settings, CABAC : Yes
      Format settings, ReFrames : 3 frames
      Duration : 1h 43mn
      Bit rate : 10.0 Mbps
      Nominal bit rate : 9 888 Kbps
      Width : 1 920 pixels
      Height : 1 080 pixels
      Display aspect ratio : 16:9
      Frame rate : 23.976 fps
      Resolution : 24 bits
      Colorimetry : 4:2:0
      Scan type : Progressive
      Bits/(Pixel*Frame) : 0.202
      Stream size : 7.26 GiB (92%)
      Writing library : x264 core 104 r1683 62997d6
      Encoding settings : cabac=1 / ref=3 / deblock=1:0:0 / analyse=0x3:0x113 / me=umh / subme=7 / 
psy=1 / psy_rd=1.00:0.25 / mixed_ref=1 / me_range=16 / chroma_me=1 / trellis=1 / 8x8dct=1 / cqm=0 / 
deadzone=21,11 / fast_pskip=1 / chroma_qp_offset=-4 / threads=6 / sliced_threads=0 / slices=4 / 
nr=0 / decimate=1 / interlaced=0 / constrained_intra=0 / bframes=3 / b_pyramid=1 / b_adapt=1 / 
b_bias=0 / direct=3 / weightb=1 / open_gop=2 / weightp=0 / keyint=24 / keyint_min=2 / scenecut=40 / 
intra_refresh=0 / rc_lookahead=24 / rc=2pass / mbtree=1 / bitrate=9888 / ratetol=1.0 / qcomp=0.60 / 
qpmin=10 / qpmax=51 / qpstep=4 / cplxblur=20.0 / qblur=0.5 / vbv_maxrate=18000 /
vbv_bufsize=18000 / ip_ratio=1.40 / aq=1:1.00 / nal_hrd=vbr
   Audio #4352
      ID : 4352 (0x1100)
      Menu ID : 1 (0x1)
      Format : AC-3
      Format/Info : Audio Coding 3
      Duration : 1h 43mn
      Bit rate mode : Constant
      Bit rate : 448 Kbps
      Channel(s) : 6 channels
      Channel positions : Front: L C R, Surround: L R, LFE
      Sampling rate : 48.0 KHz
      Stream size : 331 MiB (4%)
      Language : English /  / 
   Text #4608
      ID : 4608 (0x1200)
      Menu ID : 1 (0x1)
      Format : PGS
      Language : Dutch /  / 
   Text #4609
      ID : 4609 (0x1201)
      Menu ID : 1 (0x1)
      Format : PGS
      Language : English /  / 
   Text #4610
      ID : 4610 (0x1202)
      Menu ID : 1 (0x1)
      Format : PGS
      Language : Slovenian /  / 
   Text #4611
      ID : 4611 (0x1203)
      Menu ID : 1 (0x1)
      Format : PGS
      Language : rom /  / 
   Text #4612
      ID : 4612 (0x1204)
      Menu ID : 1 (0x1)
      Format : PGS
      Language : Spanish /  / 
   Text #4613
      ID : 4613 (0x1205)
      Menu ID : 1 (0x1)
      Format : PGS
      Language : Bulgarian /  / 